<?xml version="1.0" encoding="UTF-8" standalone="no"?>
<svg
   xmlns:dc="http://purl.org/dc/elements/1.1/"
   xmlns:cc="http://creativecommons.org/ns#"
   xmlns:rdf="http://www.w3.org/1999/02/22-rdf-syntax-ns#"
   xmlns:svg="http://www.w3.org/2000/svg"
   xmlns="http://www.w3.org/2000/svg"
   xmlns:sodipodi="http://sodipodi.sourceforge.net/DTD/sodipodi-0.dtd"
   xmlns:inkscape="http://www.inkscape.org/namespaces/inkscape"
   version="1.1"
   id="svg2"
   xml:space="preserve"
   width="1000"
   height="666.66669"
   viewBox="0 0 1000 666.66669"
   sodipodi:docname="5395377.eps"><metadata
     id="metadata8"><rdf:RDF><cc:Work
         rdf:about=""><dc:format>image/svg+xml</dc:format><dc:type
           rdf:resource="http://purl.org/dc/dcmitype/StillImage" /></cc:Work></rdf:RDF></metadata><defs
     id="defs6" /><sodipodi:namedview
     pagecolor="#ffffff"
     bordercolor="#666666"
     borderopacity="1"
     objecttolerance="10"
     gridtolerance="10"
     guidetolerance="10"
     inkscape:pageopacity="0"
     inkscape:pageshadow="2"
     inkscape:window-width="640"
     inkscape:window-height="480"
     id="namedview4" /><g
     id="g10"
     inkscape:groupmode="layer"
     inkscape:label="ink_ext_XXXXXX"
     transform="matrix(1.3333333,0,0,-1.3333333,0,666.66667)"><g
       id="g12"
       transform="scale(0.1)"><path
         d="M 0,0 H 7500 V 5000 H 0 Z"
         style="fill:#eef5ff;fill-opacity:1;fill-rule:nonzero;stroke:none"
         id="path14" /><path
         d="m 2110.05,611.609 h -973.07 c 0,0 -377.394,366.762 -286.261,903.201 115.961,682.62 616.751,707.6 616.751,707.6 0,0 -2.76,1082.68 1197.51,1019.81 0,0 1065.6,570.29 1745.79,-220.82 0,0 478.96,516.63 1370.39,156.23 C 6792,2768.96 6861.24,1084.62 6142.5,611.609 H 2110.05"
         style="fill:#eeeeee;fill-opacity:1;fill-rule:nonzero;stroke:none"
         id="path16" /><path
         d="m 1430,1440.63 c -55.92,0 -101.4,45.48 -101.4,101.4 0,55.91 45.48,101.4 101.4,101.4 55.91,0 101.4,-45.49 101.4,-101.4 0,-55.92 -45.49,-101.4 -101.4,-101.4 z m 227.03,28.43 -33.51,22.57 c 4.2,16.13 6.68,32.97 6.68,50.4 0,19.38 -2.91,38.06 -8.08,55.79 l 34.69,23.51 c 15.94,10.8 20.1,32.48 9.3,48.43 l -32.61,48.11 c -10.8,15.95 -32.48,20.11 -48.43,9.31 l -36.14,-24.49 c -16.58,12.3 -35.06,22.12 -54.99,28.87 v 43.95 c 0,19.26 -15.61,34.87 -34.87,34.87 h -58.13 c -19.26,0 -34.87,-15.61 -34.87,-34.87 v -43.95 c -20.13,-6.8 -38.77,-16.76 -55.46,-29.23 l -36.22,24.39 c -15.98,10.75 -37.64,6.52 -48.4,-9.44 l -32.46,-48.23 c -10.76,-15.97 -6.53,-37.64 9.44,-48.4 l 34.76,-23.4 c -5.05,-17.57 -7.92,-36.05 -7.92,-55.22 0,-17.65 2.52,-34.67 6.83,-50.98 l -33.44,-22.66 c -15.94,-10.8 -20.11,-32.48 -9.31,-48.43 l 32.61,-48.11 c 10.8,-15.95 32.49,-20.11 48.43,-9.31 l 32.17,21.81 c 17.57,-13.73 37.44,-24.56 58.97,-31.85 v -38.29 c 0,-19.26 15.61,-34.87 34.87,-34.87 h 58.13 c 19.26,0 34.87,15.61 34.87,34.87 v 38.29 c 21.72,7.35 41.76,18.31 59.44,32.21 l 32.24,-21.71 c 15.97,-10.75 37.64,-6.53 48.39,9.45 l 32.47,48.21 c 10.76,15.98 6.53,37.65 -9.45,48.4"
         style="fill:#a4a4a3;fill-opacity:1;fill-rule:nonzero;stroke:none"
         id="path52" /><path
         d="m 4014.57,3072.92 c 0,0 -87.68,82.19 -102.74,180.82 -15.07,98.63 83.88,172.6 83.88,172.6 0,0 0.4,64.72 77.76,112.33 17.81,10.95 68.49,104.1 121.92,109.58 53.42,5.49 52.05,-80.82 52.05,-80.82 0,0 115.07,82.19 152.05,72.6 36.98,-9.59 12.33,-60.27 12.33,-60.27 0,0 126.02,64.39 157.54,45.21 31.5,-19.18 10.95,-106.85 10.95,-106.85 0,0 42.46,-52.06 124.65,-87.67 82.2,-35.62 189.04,-90.41 187.68,-245.2 -1.38,-154.8 -115.07,-349.31 -115.07,-349.31 l -671.22,52.05 -91.78,184.93"
         style="fill:#1d2a30;fill-opacity:1;fill-rule:nonzero;stroke:none"
         id="path54" /><path
         d="m 4175,3158.94 c -9.66,1.89 -18.35,7.52 -25.7,14.12 -7.39,6.66 -13.82,14.46 -19.08,22.94 -10.44,17.06 -17.13,36 -22.38,55.12 -8.97,38.56 -12.88,78.22 -7.74,118.25 2.54,19.91 8.68,39.17 15.93,57.78 8.55,18.04 17.65,35.97 30.19,51.46 23.82,31.72 54.24,58.26 88.84,76.39 -15.75,-11.48 -30.31,-24.32 -43.53,-38.34 -13.55,-13.64 -25.65,-28.64 -36.06,-44.6 -21.1,-31.7 -35.93,-67.36 -40.8,-104.81 l -1.95,-14 c -0.45,-4.69 -0.31,-9.43 -0.5,-14.14 l -0.36,-14.16 0.75,-14.35 c 0.48,-19.23 3.36,-38.13 6.24,-57.02 3.73,-18.66 8.97,-37.14 17.61,-54.04 8.22,-16.86 20.44,-33.01 38.54,-40.6"
         style="fill:#365462;fill-opacity:1;fill-rule:nonzero;stroke:none"
         id="path56" /><path
         d="m 4205.98,3164.06 c -10.89,40.63 -13.75,83.32 -10.84,125.6 2.68,42.37 13.35,84.46 31.7,123.23 18.85,38.47 45.56,72.97 77.57,100.88 31.78,28.12 68.02,51.24 107.41,65.99 -18.38,-10.09 -36.02,-21.26 -52.52,-33.93 -16.77,-12.23 -32.61,-25.69 -47.15,-40.33 -14.47,-14.69 -28.47,-29.84 -40.29,-46.62 -12.42,-16.34 -22.78,-34.09 -31.77,-52.41 -17.81,-36.82 -28.47,-76.96 -33.73,-117.92 -2.69,-20.49 -3.96,-41.23 -3.87,-62.01 -0.31,-20.82 1.04,-41.65 3.49,-62.48"
         style="fill:#365462;fill-opacity:1;fill-rule:nonzero;stroke:none"
         id="path58" /><path
         d="m 4104.57,3164.06 c -24.56,7 -46.15,23.31 -63.1,42.83 -17.15,19.64 -29.11,43.31 -37.48,67.72 -8.69,24.49 -11.94,50.25 -13.78,75.72 -0.17,12.79 0.01,25.56 0.54,38.24 1.67,12.67 2.84,25.3 4.96,37.77 1.21,-12.7 1.49,-25.26 2.26,-37.76 l 3.69,-37.25 c 4.09,-24.46 7.81,-48.98 16.28,-72.02 7.68,-23.2 18.21,-45.47 32.51,-65.31 14.53,-19.47 31.93,-37.68 54.12,-49.94"
         style="fill:#365462;fill-opacity:1;fill-rule:nonzero;stroke:none"
         id="path60" /><path
         d="m 4247.39,3177.63 c 22.49,26.56 46.12,51.99 69.9,77.23 23.69,25.37 48.17,49.92 72.66,74.46 24.75,24.29 49.5,48.57 75.07,72.03 l 38.38,35.16 c 13.17,11.34 25.98,23.03 39.47,34.05 -11.13,-13.39 -22.94,-26.11 -34.38,-39.18 L 4473,3393.31 c -23.69,-25.37 -48.18,-49.91 -72.68,-74.44 -24.75,-24.28 -49.51,-48.56 -75.09,-72.01 -25.44,-23.58 -51.07,-46.98 -77.84,-69.23"
         style="fill:#365462;fill-opacity:1;fill-rule:nonzero;stroke:none"
         id="path62" /><path
         d="M 4142.8,1322.26 4072.43,751.879 H 3803.61 L 3914.04,1515.1 4142.8,1322.26"
         style="fill:#f9ad95;fill-opacity:1;fill-rule:nonzero;stroke:none"
         id="path64" /><path
         d="m 5271.02,1460.97 274.44,-750.611 304.5,7.051 -307.99,907.55 -270.95,-163.99"
         style="fill:#f9ad95;fill-opacity:1;fill-rule:nonzero;stroke:none"
         id="path66" /><path
         d="m 4697.17,2754.87 35.41,-339.91 c 7.33,-70.41 -11.48,-102.43 -49.04,-162.44 -36.83,-58.85 -92.86,-95.18 -195.49,-95.18 -221.52,0 -189.47,403.85 -189.47,403.85 l 398.59,193.68"
         style="fill:#f9ad95;fill-opacity:1;fill-rule:nonzero;stroke:none"
         id="path68" /><path
         d="m 4314.74,2338.5 c 4.1,-17.41 9.11,-34.57 15.2,-51.04 22.83,-16.36 73.59,-37.66 166.78,-9.26 129.57,39.5 157.23,215.48 157.23,215.48 -64.92,-113.17 -338.57,-155.09 -339.21,-155.18"
         style="fill:#f6865e;fill-opacity:1;fill-rule:nonzero;stroke:none"
         id="path70" /><path
         d="m 4743.3,2920.79 c -14.93,0 -29.15,-2.98 -42.18,-8.28 v 0.76 c -126.92,11.8 -40.66,316.29 -40.66,316.29 0,0 -63.73,-21.25 -92.05,-16.53 -28.33,4.72 37.76,66.09 37.76,66.09 0,0 -75.53,-35.4 -103.86,-28.32 -28.32,7.08 11.81,54.29 11.81,54.29 0,0 -141.62,-73.18 -266.73,-127.46 -125.1,-54.29 -250.19,18.88 -250.19,18.88 -11.8,-285.6 50.47,-598.85 50.47,-598.85 30.6,-150.62 163.77,-263.99 323.41,-263.99 175.71,0 319.28,137.32 329.42,310.47 l 0.62,0.04 v 60.65 c 13.03,-5.29 27.25,-8.27 42.18,-8.27 61.91,0 112.12,50.19 112.12,112.12 0,61.92 -50.21,112.11 -112.12,112.11"
         style="fill:#f9ad95;fill-opacity:1;fill-rule:nonzero;stroke:none"
         id="path72" /><path
         d="m 5654.64,1601.39 c -40.88,68.35 -137.3,231.32 -200.99,353.4 -82.65,158.41 -117.09,220.41 -241.06,275.5 -123.99,55.11 -406.38,89.54 -406.38,89.54 l -321.86,-177.51 -212.89,96.7 c 0,0 -239.08,-112.04 -275.75,-174.03 -36.68,-61.98 -143.43,-723.87 -143.43,-723.87 l 301,-77.79 23.18,205.07 148.57,-733.611 1014.64,-24.43 -161.53,903.501 95.48,-229.76 c 8.73,-20.99 31.49,-32.47 53.51,-26.83 69.89,17.89 219.26,67.4 321.98,181.51 15.49,17.22 17.41,42.74 5.53,62.61"
         style="fill:#4870c0;fill-opacity:1;fill-rule:nonzero;stroke:none"
         id="path74" /><path
         d="m 5178.14,1613.86 c -11.46,25.46 -21.54,51.36 -31.13,77.43 -9.68,26.03 -18.54,52.34 -27.24,78.69 -8.44,26.45 -16.71,52.94 -24.15,79.7 -7.54,26.74 -14.58,53.63 -20.23,80.97 11.48,-25.45 21.56,-51.35 31.15,-77.43 9.68,-26.03 18.54,-52.33 27.23,-78.7 8.42,-26.44 16.69,-52.94 24.13,-79.7 7.53,-26.73 14.58,-53.63 20.24,-80.96"
         style="fill:#254285;fill-opacity:1;fill-rule:nonzero;stroke:none"
         id="path76" /><path
         d="m 5087.25,2269.86 c -13.05,-15.35 -23.16,-32.24 -31.46,-49.79 -8.15,-17.62 -14.27,-36 -18.43,-54.86 -1.65,-9.54 -3.82,-18.99 -4.45,-28.7 -0.46,-4.83 -1.42,-9.64 -1.47,-14.51 -0.11,-4.87 -0.35,-9.74 -0.64,-14.64 -0.47,-4.9 -0.15,-9.79 -0.08,-14.71 l 0.14,-14.84 c 0.42,-9.89 1.41,-19.78 1.48,-29.97 -3.27,9.5 -6.2,19.21 -8.65,29.06 -1.54,9.97 -3.98,19.97 -4.37,30.16 -1.91,20.36 -0.16,41 3.65,61.24 4.71,20.06 11.95,39.65 22.75,57.21 10.67,17.47 24.33,33.51 41.53,44.35"
         style="fill:#254285;fill-opacity:1;fill-rule:nonzero;stroke:none"
         id="path78" /><path
         d="m 4176.46,1468.4 c -7.62,31.85 -15.41,63.63 -21.84,95.67 -6.77,31.98 -12.72,64.09 -18.53,96.24 -11.13,64.39 -21.23,128.95 -26.93,194.3 17.18,-63.31 29.89,-127.42 41.43,-191.74 5.52,-32.21 10.86,-64.44 15.31,-96.83 4.53,-32.38 8.55,-64.87 10.56,-97.64"
         style="fill:#254285;fill-opacity:1;fill-rule:nonzero;stroke:none"
         id="path80" /><path
         d="m 3995.71,2064.99 c 6.79,4.04 15.36,4.67 23.49,3.39 8.08,-1.65 15.8,-5.25 22.39,-10.19 13.45,-9.77 22.38,-23.6 29.89,-37.44 6.83,-14.24 12.2,-28.99 15.4,-44.16 3.66,-15.06 5.18,-30.5 5.53,-45.94 -6.37,14.23 -10.95,28.63 -16.53,42.59 -2.53,7.09 -5.43,13.93 -8.35,20.75 -2.51,7.04 -6.08,13.43 -9.17,20.09 -6.68,12.89 -14.14,25.44 -24.11,35.33 -9.89,9.62 -22.9,17.32 -38.54,15.58"
         style="fill:#254285;fill-opacity:1;fill-rule:nonzero;stroke:none"
         id="path82" /><path
         d="m 4747.7,2401.19 -244.21,-224.55 h -42.1 l -142.71,137.46 c -3.45,3.33 -9,3.03 -12.08,-0.65 l -62.82,-75.16 c -4.14,-4.96 -4.62,-12.03 -1.18,-17.5 l 95.5,-152.02 c 16.67,-26.53 55.42,-26.24 71.69,0.53 l 43.24,71.14 5.25,-271.31 c 0.17,-8.37 7.21,-14.93 15.57,-14.5 l 51.05,2.62 c 8.2,0.42 14.48,7.41 14.04,15.6 l -14.56,264.43 64.56,-84.52 c 16.97,-22.22 50.49,-22.04 67.23,0.36 l 199.25,266.67 -107.72,81.4"
         style="fill:#2e68bb;fill-opacity:1;fill-rule:nonzero;stroke:none"
         id="path84" /><path
         d="m 4505.46,2098.61 c 0,-8.75 -7.09,-15.85 -15.84,-15.85 -8.75,0 -15.84,7.1 -15.84,15.85 0,8.74 7.09,15.84 15.84,15.84 8.75,0 15.84,-7.1 15.84,-15.84"
         style="fill:#ffffff;fill-opacity:1;fill-rule:nonzero;stroke:none"
         id="path86" /><path
         d="m 4512.78,1914.2 c 0,-8.75 -7.09,-15.84 -15.84,-15.84 -8.75,0 -15.84,7.09 -15.84,15.84 0,8.75 7.09,15.84 15.84,15.84 8.75,0 15.84,-7.09 15.84,-15.84"
         style="fill:#ffffff;fill-opacity:1;fill-rule:nonzero;stroke:none"
         id="path88" /><path
         d="m 4508.79,2003.41 c 0,-8.75 -7.09,-15.84 -15.84,-15.84 -8.75,0 -15.84,7.09 -15.84,15.84 0,8.75 7.09,15.84 15.84,15.84 8.75,0 15.84,-7.09 15.84,-15.84"
         style="fill:#ffffff;fill-opacity:1;fill-rule:nonzero;stroke:none"
         id="path90" /><path
         d="m 4489.62,1052.13 c 33.72,-28.61 70.39,-53.142 108.23,-75.099 38.08,-21.539 77.76,-40.25 119.2,-53.699 41.28,-13.852 84.21,-22.711 127.7,-25.902 21.73,-1.559 43.64,-1.899 65.5,-0.399 21.99,0.629 43.66,4.43 65.56,7.758 -42.16,-13.238 -86.88,-20.348 -131.62,-18.84 -44.77,0.91 -89.28,9.41 -131.77,23.41 -42.51,14.11 -82.95,33.903 -120.5,57.879 -37.5,24.012 -72.48,52.122 -102.3,84.892"
         style="fill:#254285;fill-opacity:1;fill-rule:nonzero;stroke:none"
         id="path92" /><path
         d="m 4455.26,2839.94 c -1.69,-16.22 -16.2,-28 -32.42,-26.31 -16.22,1.69 -28,16.2 -26.31,32.42 1.69,16.22 16.2,28 32.43,26.31 16.22,-1.69 27.99,-16.2 26.3,-32.42"
         style="fill:#1d2a30;fill-opacity:1;fill-rule:nonzero;stroke:none"
         id="path94" /><path
         d="m 4371,2912.59 c -1.11,13.56 5.09,27.82 15.91,37.82 5.35,5.17 12.06,8.52 18.81,11.39 6.97,2.32 14.02,3.81 21.27,4.17 7.24,0.46 14.63,-0.64 21.71,-2.41 6.93,-2.39 13.79,-5.12 19.46,-9.62 11.53,-8.48 20.03,-20.37 23.27,-33.54 -19.01,18.83 -40.71,29.76 -63.62,28 -11.58,-0.32 -22.78,-3.16 -32.57,-8.85 -9.61,-5.94 -18.15,-15.01 -24.24,-26.96"
         style="fill:#1d2a30;fill-opacity:1;fill-rule:nonzero;stroke:none"
         id="path96" /><path
         d="m 4349.95,3018.08 c 22.13,4.37 74.81,11.92 145.65,3.32 5.93,-0.72 10.04,5.94 6.68,10.88 -10.3,15.09 -36.06,37.85 -96.74,33.5 -41.37,-2.96 -57.37,-24.16 -63.45,-38.08 -2.27,-5.19 2.31,-10.72 7.86,-9.62"
         style="fill:#1d2a30;fill-opacity:1;fill-rule:nonzero;stroke:none"
         id="path98" /><path
         d="m 4167.88,2823.32 c 1.14,-15.98 -7.85,-29.65 -20.09,-30.53 -12.24,-0.87 -23.09,11.38 -24.24,27.36 -1.14,15.98 7.86,29.64 20.09,30.52 12.24,0.88 23.09,-11.37 24.24,-27.35"
         style="fill:#1d2a30;fill-opacity:1;fill-rule:nonzero;stroke:none"
         id="path100" /><path
         d="m 4068.07,2872.52 c -3.16,11.13 -2.22,23.58 3.03,34.87 4.97,11.5 15.92,20.78 28.03,24.72 6.19,1.84 12.86,2.94 19.46,1.96 6.52,-0.97 12.8,-3.22 17.97,-6.76 10.39,-6.98 17.62,-17.02 20.94,-28.1 -8.63,7.54 -17.48,13.78 -26.57,17.48 -9.22,3.52 -18.17,3.67 -26.97,0.81 -8.89,-3.02 -16.62,-8.25 -22.53,-16.16 -5.9,-7.91 -10.16,-17.82 -13.36,-28.82"
         style="fill:#1d2a30;fill-opacity:1;fill-rule:nonzero;stroke:none"
         id="path102" /><path
         d="m 4036.4,2973.26 c 15.99,7.8 54.49,23.55 109.08,26.24 4.57,0.23 6.67,7.44 3.39,11.78 -10.01,13.27 -32.82,31.66 -77.82,17.8 -30.67,-9.45 -39.53,-32.89 -42.02,-47.57 -0.92,-5.47 3.36,-10.21 7.37,-8.25"
         style="fill:#1d2a30;fill-opacity:1;fill-rule:nonzero;stroke:none"
         id="path104" /><path
         d="m 4212.26,2922.97 c -3.55,-30.84 -6.36,-61.64 -8.46,-92.37 -1.8,-30.71 -3.13,-61.54 -0.44,-91.8 1.06,-7.45 1.2,-15.16 2.99,-22.4 l 2.19,-11 3.39,-10.47 c 4.78,-13.46 13.3,-26.05 25.2,-33.51 5.77,-4.14 12.82,-5.45 19.83,-6.44 7.14,-0.1 14.53,0.53 21.65,2.94 14.47,4.11 27.8,12.34 40.12,21.66 -10.55,-11.4 -23.4,-20.91 -38.12,-27.27 -7.37,-3.26 -15.51,-4.74 -23.82,-5.28 -8.26,0.32 -17.02,1.71 -24.33,6.14 -15.15,8.08 -25.09,22.51 -31.28,37.69 l -3.97,11.56 -2.5,11.74 c -2,7.82 -2.27,15.71 -3.43,23.57 -2.55,31.52 -0.63,62.83 3.12,93.75 3.73,30.93 9.69,61.52 17.86,91.49"
         style="fill:#1d2a30;fill-opacity:1;fill-rule:nonzero;stroke:none"
         id="path106" /><path
         d="m 4253.98,2569.46 c 16.72,-5.42 33.75,-8.41 50.59,-8.36 16.78,0.2 33.41,2.96 48.56,9.71 7.41,3.59 15.11,6.9 21.72,12.05 3.37,2.46 7.16,4.38 10.22,7.29 3.11,2.83 6.31,5.59 9.56,8.33 3.42,2.56 6.01,5.97 8.99,9.03 l 8.88,9.37 c 5.43,6.69 10.63,13.65 16.5,20.33 -3.53,-8.02 -7.47,-15.97 -11.68,-23.82 -5.19,-7.14 -9.69,-15.03 -15.91,-21.53 -11.71,-13.73 -26.86,-24.59 -43.55,-32.23 -16.93,-7.27 -35.76,-9.79 -53.78,-7.96 -18.02,1.78 -35.52,7.8 -50.1,17.79"
         style="fill:#1d2a30;fill-opacity:1;fill-rule:nonzero;stroke:none"
         id="path108" /><path
         d="m 4741.12,2892.08 c 19.37,-1.63 38.79,-10.48 52.89,-25.78 14.75,-15.07 20.82,-37.19 20.55,-57.6 -0.18,-20.34 -7.89,-42.58 -24.19,-56.36 -15.91,-13.99 -36.97,-19.31 -56.23,-17.48 18.65,4.87 35.88,13.45 47.39,26.5 5.5,6.64 10.37,13.74 12.64,22.1 1.73,3.88 2.06,8.36 3.22,12.47 0.36,4.37 0.93,8.74 1,13.12 0.05,8.78 -0.42,17.64 -3.04,25.87 -0.77,4.3 -2.81,8.12 -4.33,12.19 -2.18,3.73 -4.04,7.7 -6.73,11.21 -10.25,14.36 -25.62,25.67 -43.17,33.76"
         style="fill:#f6865e;fill-opacity:1;fill-rule:nonzero;stroke:none"
         id="path110" /><path
         d="M 2884.29,1542.83 3089.01,611.609 H 1722.25 c 0,0 64.75,792.781 157.03,1049.891 60.3,167.97 448.47,197.78 711.3,157.08 145.46,-22.53 262.11,-132 293.71,-275.75"
         style="fill:#2b404a;fill-opacity:1;fill-rule:nonzero;stroke:none"
         id="path112" /><path
         d="M 3799.17,1448.42 1408.86,715.832 V 611.609 h 4650.07 v 98.75 L 3989.61,1449.52 c -62.22,18.28 -128.44,17.9 -190.44,-1.1"
         style="fill:#9dc3ea;fill-opacity:1;fill-rule:nonzero;stroke:none"
         id="path114" /><path
         d="m 1408.86,715.832 4650.07,-5.473 v -98.75 H 1408.86 v 104.223"
         style="fill:#78a6dd;fill-opacity:1;fill-rule:nonzero;stroke:none"
         id="path116" /><path
         d="m 2563.79,3641.34 c 0,0 -120.04,11.38 -292.82,-166.02 -166.16,-170.6 -125.26,-488.63 -125.26,-488.63 l 536.7,168.79 88.07,305.68 -206.69,180.18"
         style="fill:#182022;fill-opacity:1;fill-rule:nonzero;stroke:none"
         id="path118" /><path
         d="m 2666.93,3322.92 c 0,0 -512.73,-118.35 -635.25,-392.68 -122.51,-274.33 -122.51,-702.74 -122.51,-702.74 l -108.96,-547.26 c -5.91,-29.69 5.45,-60.03 29.24,-78.76 84.62,-66.6 308.19,-204.89 656.7,-152.53 342.53,51.46 449.42,206.67 481.19,279.33 9.4,21.51 10.13,45.77 2.55,68 l -45.53,133.64 112.98,673.92 641.48,-987.71 c 9.38,-14.43 29.41,-17.21 42.27,-5.77 37.5,33.35 115.39,99.1 210.53,159.74 0,0 -633.98,1058.24 -833.63,1362.25 -199.65,304.01 -431.06,190.57 -431.06,190.57"
         style="fill:#234c8d;fill-opacity:1;fill-rule:nonzero;stroke:none"
         id="path120" /><path
         d="m 2711.68,2152.29 c 0,0 19.15,-72.28 24.07,-101.25 4.92,-28.97 -11.11,-34.54 -11.11,-34.54 l -172.8,-105.49 c 0,0 -348.24,-192.13 -421.68,-223.84 -73.45,-31.71 -94.82,5.48 -94.82,5.48 -87.63,105.35 -121.07,507.81 -125.6,567.58 -0.55,-20.81 -0.57,-32.73 -0.57,-32.73 l -108.96,-547.26 c -5.91,-29.69 5.45,-60.03 29.25,-78.76 1.33,-1.05 2.81,-2.16 4.21,-3.26 81.97,-26.9 184.54,-56.67 227.76,-53.06 77.21,6.44 663.46,379.63 694.92,407.33 31.46,27.71 28.6,92.4 28.6,92.4 l 173.56,88.75 22.92,136.7 -269.75,-118.05"
         style="fill:#204476;fill-opacity:1;fill-rule:nonzero;stroke:none"
         id="path122" /><path
         d="m 1909.17,2227.5 c 10.11,-64.71 20.68,-129.2 33.78,-193.12 9.75,-64.37 21.65,-128.49 38.21,-191.14 8.41,-31.23 17.96,-62.2 30.63,-91.45 6.36,-14.56 13.56,-28.72 22.31,-41.26 8.64,-12.35 19.5,-23.56 31.38,-26.8 2.93,-0.81 5.89,-1.14 8.88,-1 3.26,0.2 7.07,0.78 10.73,1.45 7.43,1.44 15.01,3.59 22.55,5.97 15.1,4.75 30.11,10.73 44.99,16.94 29.76,12.58 59.07,26.73 88.13,41.35 116.09,59.08 228.93,125.15 340.91,192.31 l 83.68,50.95 41.64,25.78 10.37,6.5 c 1.98,1.28 2.84,1.82 3.81,2.7 0.95,0.86 1.84,1.79 2.57,2.84 2.94,4.18 4.42,9.3 3.54,14.76 -11.84,64.04 -24.57,128.58 -35.81,193.01 19,-62.78 36.53,-125.44 54.9,-188.61 3.15,-10.43 0.88,-22.86 -6.11,-31.67 -1.69,-2.24 -3.68,-4.25 -5.84,-6.04 -2.11,-1.81 -4.78,-3.38 -6.25,-4.28 l -10.42,-6.48 -41.74,-25.84 -83.84,-51.05 c -112.25,-67.31 -225.23,-133.5 -342.24,-193.05 -29.33,-14.75 -58.94,-29.06 -89.4,-41.93 -15.27,-6.38 -30.67,-12.52 -46.76,-17.59 -8.04,-2.54 -16.2,-4.87 -24.82,-6.55 -4.38,-0.79 -8.66,-1.49 -13.55,-1.79 -5.18,-0.26 -10.44,0.34 -15.38,1.71 -9.95,2.76 -18.24,8.33 -25.07,14.47 -6.83,6.21 -12.51,13.11 -17.5,20.24 -9.97,14.29 -17.59,29.47 -24.31,44.82 -13.33,30.79 -23.05,62.49 -31.64,94.35 -16.95,63.78 -28.62,128.47 -38.88,193.27 -3.51,32.66 -6.17,65.36 -8.54,98.06 -2.41,32.68 -4.15,65.42 -4.91,98.17"
         style="fill:#192f4f;fill-opacity:1;fill-rule:nonzero;stroke:none"
         id="path124" /><path
         d="m 2680.66,2296.89 c -85.63,-52.87 -173.49,-101.56 -261.91,-149.22 -88.63,-47.25 -177.83,-93.45 -269.29,-135.43 85.61,52.9 173.47,101.58 261.91,149.22 88.64,47.22 177.85,93.41 269.29,135.43"
         style="fill:#192f4f;fill-opacity:1;fill-rule:nonzero;stroke:none"
         id="path126" /><path
         d="m 2269.42,2077.68 c -6.5,27.79 -11.38,55.82 -16.76,83.8 l -7.74,84.81 c -4.91,56.55 -8.9,113.2 -12.1,169.91 -3.29,56.7 -5.22,113.52 -5.49,170.41 -0.31,28.44 0.56,56.93 1.5,85.42 l 6.6,42.43 c 2.66,14.08 5.94,28.03 9.14,41.86 l -1,-42.59 0.89,-42.44 c -0.92,-28.17 -1.78,-56.37 -1.48,-84.64 0.27,-56.5 2.19,-113.08 5.47,-169.59 3.18,-56.51 7.17,-113.01 12.07,-169.43 2.46,-28.22 4.95,-56.43 7.84,-84.6 0.22,-28.43 1.09,-56.82 1.06,-85.35"
         style="fill:#192f4f;fill-opacity:1;fill-rule:nonzero;stroke:none"
         id="path128" /><path
         d="m 2087.5,3018 c 22.81,5.76 47.14,5.87 70.73,0.92 23.59,-4.86 46.63,-16.28 64.1,-34.14 17.48,-17.86 28.07,-41.48 32.03,-65.19 4.25,-23.78 3.02,-47.84 -2.15,-70.72 -1.32,23.41 -3.65,46.4 -9.76,68.01 -2.99,10.8 -6.98,21.19 -12.24,30.78 -5,9.72 -11.45,18.58 -19.1,26.22 -14.95,15.67 -34.71,26.41 -55.99,33.28 -21.4,6.74 -44.24,10.14 -67.62,10.84"
         style="fill:#192f4f;fill-opacity:1;fill-rule:nonzero;stroke:none"
         id="path130" /><path
         d="m 2691.97,2798.7 c 0,0 85.55,-217.13 147.09,-209.63 61.54,7.51 147.75,198.9 147.75,198.9 l -294.84,10.73"
         style="fill:#9dc3ea;fill-opacity:1;fill-rule:nonzero;stroke:none"
         id="path132" /><path
         d="m 2981.43,2270.34 c 10.28,106.55 25.24,212.38 41.35,318.03 16.58,105.58 34.33,210.98 56.81,315.64 -10.24,-106.56 -25.21,-212.39 -41.35,-318.03 -16.61,-105.58 -34.37,-210.97 -56.81,-315.64"
         style="fill:#192f4f;fill-opacity:1;fill-rule:nonzero;stroke:none"
         id="path134" /><path
         d="m 2807.18,1931.75 c -26.22,-26.44 -56.31,-49.11 -88.28,-68.53 -31.98,-19.5 -66.24,-35.3 -101.7,-47.7 -8.97,-2.79 -17.75,-6.21 -26.89,-8.43 l -27.34,-6.92 c -9.16,-2.1 -18.54,-3.21 -27.78,-4.86 l -13.9,-2.25 c -4.68,-0.47 -9.39,-0.69 -14.07,-1.04 -37.39,-4.35 -75.19,-0.08 -111.63,6.36 9.35,0.08 18.63,0.03 27.85,-0.22 l 13.83,-0.25 c 4.6,0.14 9.21,0.64 13.8,0.95 l 27.5,1.63 27.25,3.66 c 36.15,5.48 71.89,13.75 106.29,26.16 34.6,11.78 68.22,26.54 100.8,43.51 16.15,8.73 32.29,17.59 47.96,27.32 15.96,9.33 31.15,19.84 46.31,30.61"
         style="fill:#192f4f;fill-opacity:1;fill-rule:nonzero;stroke:none"
         id="path136" /><path
         d="m 2581.3,3475.32 c 0,0 -123.12,146.99 -89.26,435.24 33.86,288.25 252.38,359.04 480.13,355.96 227.76,-3.08 353.95,-150.81 384.72,-412.42 30.78,-261.61 -73.86,-375.34 -73.86,-375.34 l -701.73,-3.44"
         style="fill:#1d2a30;fill-opacity:1;fill-rule:nonzero;stroke:none"
         id="path138" /><path
         d="m 2822.35,4058.25 c 25.67,-11.89 49.31,-26.75 72.48,-42.3 22.96,-15.86 45.43,-32.44 65.86,-52 -25.68,11.87 -49.32,26.72 -72.47,42.3 -22.95,15.88 -45.42,32.46 -65.87,52"
         style="fill:#365462;fill-opacity:1;fill-rule:nonzero;stroke:none"
         id="path140" /><path
         d="m 3045.95,3926.61 c 4.09,1.07 8,3 10.42,5.89 2.58,2.8 3.24,6.4 2.78,9.99 -1.01,7.35 -5.21,14.27 -9.88,20.86 -9.64,13.21 -20.74,25.82 -31.81,38.35 -22.13,25.18 -45.04,49.84 -66.16,76.56 13.86,-9.96 26.75,-21 39.2,-32.51 12.5,-11.48 24.35,-23.63 35.73,-36.29 11.2,-12.82 22.11,-25.97 30.97,-41.05 4.31,-7.52 8.42,-16.13 8,-25.86 -0.21,-4.81 -2.51,-9.95 -6.53,-12.63 -3.88,-2.81 -8.48,-3.54 -12.72,-3.31"
         style="fill:#365462;fill-opacity:1;fill-rule:nonzero;stroke:none"
         id="path142" /><path
         d="m 3105.29,3920 c 8.55,1.84 14.19,8.56 17,15.82 3.05,7.36 3.87,15.39 3.56,23.33 -0.83,16.06 -5.25,32.27 -10.33,48.11 -5.01,15.92 -11.12,31.61 -17.23,47.35 l -18.86,47.43 c 10.44,-13.66 19.26,-28.42 27.16,-43.65 7.93,-15.22 14.67,-31.1 20.1,-47.56 5.08,-16.51 9.34,-33.73 8.41,-51.79 -0.47,-9.01 -2.74,-18.19 -7.6,-25.95 -4.69,-7.71 -13.33,-14.12 -22.21,-13.09"
         style="fill:#365462;fill-opacity:1;fill-rule:nonzero;stroke:none"
         id="path144" /><path
         d="m 3130.52,3943.98 c 12.52,-8.46 27.55,-6.66 40.74,-3.11 13.53,3.83 25.96,10.29 37.33,18.68 11.53,8.14 21.88,18.06 31.78,28.52 9.75,10.63 18.81,21.96 27.52,34.06 -4.34,-14.3 -11.61,-27.68 -20.44,-39.87 -8.9,-12.19 -19.58,-23.2 -32,-32.24 -12.38,-8.89 -26.94,-15.81 -42.27,-18.07 -7.63,-1.26 -15.61,-1.33 -23.27,0.32 -7.52,1.8 -15.1,5.4 -19.39,11.71"
         style="fill:#365462;fill-opacity:1;fill-rule:nonzero;stroke:none"
         id="path146" /><path
         d="m 2630.74,3416.64 -8.78,-146.89 c -25.55,-27.99 -47.13,-89.72 -13.49,-225.89 10.04,-40.65 21.03,-71.51 32.36,-95 l 51.14,-150.16 c 0,0 138.96,-60.83 294.84,-10.73 0,0 39.18,50.12 50.31,255.89 11.14,205.77 -406.38,372.78 -406.38,372.78"
         style="fill:#f9ad95;fill-opacity:1;fill-rule:nonzero;stroke:none"
         id="path148" /><path
         d="m 2806.96,2935.85 c 88.63,-47.73 165.1,-34.11 219.06,-9.03 4.61,31.87 8.58,70.43 11.1,117.04 1.61,29.56 -5.86,58.27 -19.44,85.85 l -372.54,124.11 c 0,0 34.98,-249.64 161.82,-317.97"
         style="fill:#f6865e;fill-opacity:1;fill-rule:nonzero;stroke:none"
         id="path150" /><path
         d="m 3300.04,3272.64 c 2.1,8.39 3.9,16.88 5.36,25.51 14.09,73.38 37.24,215.91 22.44,507.32 -0.75,14.57 -7.86,28.05 -19.5,36.85 -22.82,17.26 -61.63,54.77 -83.31,121.63 0,0 -58.74,-50.74 -96.12,-18.69 0,0 -8.01,-53.4 -66.75,-5.34 0,0 0,-42.72 -101.47,24.03 h -154.86 c 0,0 -17.34,-96.63 -111.69,-146.68 -6.31,-3.35 -9.67,-10.38 -7.87,-17.28 10.59,-40.71 39.88,-176.72 -20.77,-243.85 -25.55,20.97 -59.69,31.85 -96.35,26.49 -54.07,-7.9 -97.24,-52.62 -103.49,-106.9 -8.55,-74.35 49.36,-137.4 121.99,-137.4 17.81,0 34.69,3.88 49.96,10.7 v -25.91 c 0,-185.8 150.63,-305.12 336.43,-305.12 151.56,0 279.63,100.24 321.73,238.02 h 0.06 c 0,0 1.65,5.53 4.21,16.62"
         style="fill:#f9ad95;fill-opacity:1;fill-rule:nonzero;stroke:none"
         id="path152" /><path
         d="m 3103.52,3553.95 24.75,-80.93 c 8.47,-26.76 16.68,-53.57 26.73,-79.49 2.44,-6.51 4.9,-12.99 7.66,-19.32 l 2.01,-4.78 c 0.65,-1.62 1.58,-3.87 2.18,-5.83 1.22,-4.11 1.85,-8.4 1.77,-12.69 -0.17,-17.13 -12.3,-33.72 -28.88,-37.72 -15.13,-3.8 -30.5,-2.68 -44.59,1.87 -14.02,4.73 -26.33,12.85 -36.59,22.63 12.33,-7.01 25.15,-12.86 38.52,-15.19 13.19,-2.52 27.04,-1.64 39.04,2.36 10.88,3.89 18.16,14.88 17.68,26.11 -0.17,2.76 -0.52,5.51 -1.38,8.15 -0.49,1.38 -0.92,2.4 -1.61,4.04 l -2.17,4.94 c -2.99,6.56 -5.68,13.2 -8.27,19.87 -10.05,26.82 -17.72,54.24 -23.87,81.95 -6.07,27.71 -10.81,55.7 -12.98,84.03"
         style="fill:#1d2a30;fill-opacity:1;fill-rule:nonzero;stroke:none"
         id="path154" /><path
         d="m 2966.16,3520.31 c 0,-18.58 -15.06,-33.64 -33.64,-33.64 -18.58,0 -33.64,15.06 -33.64,33.64 0,18.58 15.06,33.64 33.64,33.64 18.58,0 33.64,-15.06 33.64,-33.64"
         style="fill:#1d2a30;fill-opacity:1;fill-rule:nonzero;stroke:none"
         id="path156" /><path
         d="m 3237.81,3524.61 c 0,-18.57 -12.06,-33.63 -26.94,-33.63 -14.88,0 -26.94,15.06 -26.94,33.63 0,18.58 12.06,33.65 26.94,33.65 14.88,0 26.94,-15.07 26.94,-33.65"
         style="fill:#1d2a30;fill-opacity:1;fill-rule:nonzero;stroke:none"
         id="path158" /><path
         d="m 2852.47,3603.89 c 1.1,15.68 9.07,31.15 21.88,42.2 12.68,11.43 30.48,16.82 47.17,16.69 8.38,0 16.68,-1.24 24.86,-3.66 8.03,-2.86 15.93,-6.56 22.5,-12.12 13.13,-11.03 21.05,-27.32 20.37,-43.11 -7.62,13.6 -17.97,23.67 -29.43,30.06 -11.71,6.08 -24.8,8.53 -38.36,8.49 -13.3,-0.07 -26.25,-2.39 -37.84,-9.17 -11.67,-6.6 -22.14,-16.71 -31.15,-29.38"
         style="fill:#1d2a30;fill-opacity:1;fill-rule:nonzero;stroke:none"
         id="path160" /><path
         d="m 3161.23,3603.89 c -1,13.13 2.37,26.55 10.28,38.4 4.08,5.82 9.48,11.2 16.28,15 6.85,3.54 14.72,5.7 22.36,5.49 14.97,0.4 30.86,-7.78 38.82,-19.96 8.13,-12.03 10.98,-25.92 8.93,-38.93 -6.26,11.41 -12.95,21.51 -21.02,28.45 -3.96,3.51 -8.21,6.05 -12.71,7.62 -4.36,1.76 -9.3,2.45 -14.14,2.48 -4.85,0.24 -9.28,-0.92 -13.74,-2.43 -4.37,-1.78 -8.58,-4.61 -12.69,-8.12 -8.23,-7.17 -15.25,-17.11 -22.37,-28"
         style="fill:#1d2a30;fill-opacity:1;fill-rule:nonzero;stroke:none"
         id="path162" /><path
         d="m 2815.96,3725.49 c 23.51,4.65 79.49,12.68 154.79,3.54 6.31,-0.76 10.68,6.31 7.1,11.56 -10.95,16.04 -38.33,40.23 -102.82,35.61 -43.96,-3.15 -60.97,-25.69 -67.44,-40.48 -2.4,-5.51 2.47,-11.39 8.37,-10.23"
         style="fill:#1d2a30;fill-opacity:1;fill-rule:nonzero;stroke:none"
         id="path164" /><path
         d="m 3151.87,3724.56 c 17.65,5.26 59.58,14.75 115.44,7.63 4.68,-0.59 8.13,6.58 5.6,11.72 -7.73,15.71 -27.49,39.1 -75.67,32.78 -32.85,-4.31 -46.12,-27.23 -51.33,-42.15 -1.94,-5.56 1.54,-11.3 5.96,-9.98"
         style="fill:#1d2a30;fill-opacity:1;fill-rule:nonzero;stroke:none"
         id="path166" /><path
         d="m 2579.05,3375.8 c -20.57,1.72 -41.22,11.12 -56.21,27.39 -15.67,16.01 -22.13,39.53 -21.83,61.21 0.19,21.62 8.38,45.26 25.71,59.91 16.9,14.86 39.28,20.51 59.76,18.58 -19.83,-5.18 -38.13,-14.3 -50.37,-28.17 -5.85,-7.05 -11.03,-14.61 -13.44,-23.48 -1.83,-4.13 -2.19,-8.89 -3.42,-13.27 -0.38,-4.64 -0.99,-9.28 -1.05,-13.93 -0.06,-9.34 0.44,-18.75 3.22,-27.5 0.82,-4.57 2.99,-8.63 4.61,-12.96 2.31,-3.96 4.29,-8.18 7.15,-11.91 10.89,-15.25 27.23,-27.29 45.87,-35.87"
         style="fill:#f6865e;fill-opacity:1;fill-rule:nonzero;stroke:none"
         id="path168" /><path
         d="m 3019.57,3231.77 c -9.35,-21.85 -40,-29.69 -68.45,-17.51 -28.45,12.19 -43.93,39.77 -34.57,61.62 9.35,21.84 40,29.68 68.45,17.5 28.45,-12.18 43.93,-39.77 34.57,-61.61"
         style="fill:#f6865e;fill-opacity:1;fill-rule:nonzero;stroke:none"
         id="path170" /><path
         d="m 2886.5,3338.81 c 9.33,-17.74 20.47,-33.82 33.59,-47.77 13.19,-13.77 27.99,-25.87 44.95,-34.04 3.93,-2.62 8.56,-3.84 12.81,-5.85 l 6.51,-2.74 6.8,-1.97 c 4.55,-1.3 9.05,-2.88 13.67,-3.99 4.71,-0.72 9.4,-1.58 14.13,-2.51 2.36,-0.4 4.72,-0.99 7.11,-1.26 l 7.23,-0.51 14.59,-1.28 c 9.78,-0.36 19.62,0.08 29.78,-0.58 -9.58,-2.77 -19.41,-5.29 -29.4,-7.09 l -15.19,-1.3 c -5.1,-0.55 -10.21,-0.66 -15.33,-0.13 -20.65,0.17 -41.08,6.34 -59.87,15.3 -18.73,9.41 -34.9,23.59 -47.15,40.17 -12.3,16.51 -21.03,35.65 -24.23,55.55"
         style="fill:#1d2a30;fill-opacity:1;fill-rule:nonzero;stroke:none"
         id="path172" /><path
         d="m 2912.15,3338.81 c -10.43,-2.26 -15.51,-4.77 -20.08,-8.04 -2.4,-1.63 -4.72,-3.89 -7.76,-6.3 -1.32,-1.36 -2.92,-2.71 -4.6,-4.15 -1.68,-1.49 -3.36,-3.06 -5.76,-4.56 -1.74,5.05 -1.61,10.1 -0.15,14.94 1.59,4.81 4.53,9.55 9.26,12.86 4.68,3.29 10.83,4.83 16.26,3.79 5.4,-0.86 10.21,-3.79 12.83,-8.54"
         style="fill:#1d2a30;fill-opacity:1;fill-rule:nonzero;stroke:none"
         id="path174" /><path
         d="m 2677.92,2295.43 c 0,0 299.57,339.29 321.09,347.56 21.51,8.27 115.85,28.14 168.81,18.21 52.97,-9.94 29.75,-49.83 -9.1,-49.83 -31.49,0 -120.44,-21.52 -125.4,-23.18 -4.97,-1.65 -60.91,-75.44 -60.91,-75.44 0,0 44.8,52.46 147.41,83.9 102.62,31.45 127.45,23.17 129.1,-4.97 0,0 21.85,0.24 27.56,-18.27 6.95,-22.48 -19.28,-42.97 -45.76,-56.2 -26.49,-13.25 -73.96,-36.34 -93.83,-46.8 -19.85,-10.47 -90.57,-47.83 -90.57,-47.83 0,0 74.48,24.37 99.14,32.97 44.05,15.34 87.41,18.87 98.93,0 9.17,-15.02 -15.99,-30.68 -96.63,-57.7 l -82.21,-61.48 c -5,-4.52 -3.43,-7.03 -7,-12.75 -12.83,-20.57 -46.06,-81.93 -100.08,-121.46 -67.86,-49.65 -138.72,-57.35 -138.72,-57.35 l -87.04,-56.65 c 0,0 -22.82,64.94 -54.79,207.27"
         style="fill:#f9ad95;fill-opacity:1;fill-rule:nonzero;stroke:none"
         id="path176" /><path
         d="m 2926.5,2486.34 c 5.43,9.32 11.38,18.31 18.76,26.52 1.9,2.04 3.85,4.03 6.53,5.71 1.03,0.83 3.61,1.6 4.76,1.67 l 4.14,0.48 c 5.53,0.36 10.93,0.39 16.46,0.22 l -2.64,-0.94 c 18.9,18.43 39.47,34.9 62.41,48.38 11.33,6.72 23.98,12.32 36.13,16.79 12.22,4.69 24.63,8.84 37.07,12.89 24.93,7.9 50.26,14.75 76.25,18.91 12.98,1.86 26.18,3.99 39.68,2.22 6.58,-0.92 13.8,-2.85 18.58,-8.29 4.81,-5.6 4.57,-12.9 4.29,-19.22 -0.63,6.39 -1.75,13.27 -6.23,17.4 -4.47,4.07 -10.88,5.12 -17.06,5.28 -12.5,0.02 -25.23,-2.29 -37.74,-5.17 -25.02,-6.03 -49.72,-13.76 -74.23,-21.94 -12.26,-4.06 -24.39,-8.54 -36.51,-12.99 -12.32,-4.36 -23.53,-9.3 -34.75,-15.57 -11.2,-6.04 -21.95,-13.05 -32.49,-20.37 -10.57,-7.27 -20.94,-15.09 -30.62,-23.38 l -1.26,-1.08 -1.39,0.13 c -5.18,0.52 -10.53,0.86 -15.74,0.87 l -3.89,-0.01 c -1.52,-0.07 -1.61,-0.09 -2.86,-0.65 -2.01,-0.93 -4.12,-2.56 -6.06,-4.26 -7.84,-6.97 -14.74,-15.34 -21.59,-23.6"
         style="fill:#f57654;fill-opacity:1;fill-rule:nonzero;stroke:none"
         id="path178" /><path
         d="m 2961.25,2455.55 c 4.56,10.04 9.71,19.93 17.8,28.17 2.08,1.96 4.65,3.87 7.68,4.85 2.69,0.88 5.42,1.62 8.16,2.25 5.51,1.29 10.99,2.14 16.7,2.62 l -1.33,-0.35 c 38.59,21.4 77.65,41.88 117.87,60.15 20.04,9.26 40.34,18.01 61.09,25.86 10.34,4.04 20.86,7.62 31.64,10.73 5.38,1.58 10.75,3.15 16.45,4.13 5.4,1.47 11.61,1.61 17.68,1.71 l -0.35,0.01 c 5.84,-0.31 10.9,-1.81 15.85,-4.8 4.81,-3.05 8.7,-8.23 9.84,-13.8 1.24,-5.67 0.58,-10.74 -0.24,-15.69 -0.9,-5.02 -2.69,-10.03 -5.44,-14.4 -5.69,-8.73 -14.03,-14.43 -22.26,-19.36 -8.33,-4.9 -17.06,-8.86 -25.89,-12.53 8.24,4.85 16.44,9.75 24.15,15.21 7.58,5.52 14.83,11.82 18.91,19.66 2.11,3.85 3.35,8.06 3.89,12.46 0.5,4.44 0.68,9.11 -0.44,12.75 -1.92,7.58 -10.4,11.33 -18.31,11.28 l -0.34,0.01 c -4.93,-0.49 -9.74,-0.83 -15,-2.35 -5.14,-1.02 -10.29,-2.69 -15.43,-4.37 -10.28,-3.25 -20.46,-7.24 -30.62,-11.21 -20.35,-7.94 -40.37,-16.93 -60.44,-25.77 l -59.9,-27.44 c -19.96,-9.18 -39.97,-18.37 -59.76,-27.91 l -0.69,-0.33 -0.63,-0.02 c -5.28,-0.19 -10.74,-0.65 -16.07,-1.32 -2.67,-0.35 -5.32,-0.8 -7.93,-1.38 -2.3,-0.53 -4.39,-1.73 -6.48,-3.35 -8.06,-6.83 -14.33,-16.22 -20.16,-25.47"
         style="fill:#f57654;fill-opacity:1;fill-rule:nonzero;stroke:none"
         id="path180" /><path
         d="m 2991.95,2398.7 c 7.3,8.06 14.53,16.17 22.65,23.57 2.13,1.7 3.94,3.91 7.31,4.83 3.03,0.56 5.8,0.37 8.59,0.18 5.55,-0.48 10.93,-1.42 16.36,-2.56 l -1.23,-0.04 c 25.99,9.49 52.21,18.22 78.38,27.17 l 39.37,13.15 c 13.12,4.27 26.44,8.64 40.74,10.95 7.14,1.06 14.66,1.67 22.53,-0.03 7.9,-1.42 15.63,-6.88 19.94,-13.55 1.17,-1.75 2.01,-3.08 3.08,-5.28 1.08,-2.23 1.62,-4.99 1.45,-7.59 -0.32,-5.35 -2.99,-9.39 -5.57,-12.49 -5.39,-6.2 -11.65,-10.12 -17.94,-13.76 -6.21,-3.49 -13.1,-6.63 -19.58,-8.95 l -19.41,-7.3 -38.9,-14.33 1.36,0.74 -82.62,-60.93 1.4,1.66 c -15.34,-27.34 -32.48,-53.3 -51.86,-77.75 -9.73,-12.16 -20.29,-23.7 -31.7,-34.32 -11.36,-10.61 -23.89,-20.23 -37.89,-26.93 13.31,7.95 24.91,18.24 35.52,29.34 10.62,11.12 20.09,23.27 29.2,35.64 18.14,24.77 34.19,51.3 48.1,78.47 l 0.5,0.97 0.91,0.69 81.81,62.04 0.59,0.44 0.78,0.31 38.7,14.82 19.4,7.3 c 6.54,2.26 12.3,4.83 18.18,8.02 5.69,3.13 11.29,6.78 15.01,11.04 1.86,2.09 3.01,4.31 3.07,5.94 l -0.45,2.47 c -0.42,0.91 -1.35,2.56 -2.11,3.67 -6.03,10.15 -18.92,11.47 -32,9.44 -13.08,-1.81 -26.12,-6.19 -39.43,-9.88 l -39.74,-11.68 -79.45,-23.69 -0.66,-0.21 -0.56,0.16 c -5.13,1.42 -10.42,2.66 -15.66,3.43 -2.6,0.36 -5.3,0.64 -7.65,0.35 -2,-0.31 -4.2,-2.25 -6.29,-3.82 -8.33,-6.83 -16.34,-14.24 -24.23,-21.7"
         style="fill:#f57654;fill-opacity:1;fill-rule:nonzero;stroke:none"
         id="path182" /><path
         d="m 4235.02,1072.38 c -2.85,25.9 -28.86,113.09 -42.62,141.92 -0.74,1.55 -1.7,3.26 -2.76,5.04 1.47,17.86 17.93,39.3 10.7,55.48 -12,26.87 -58.36,73.75 -58.36,73.75 0,0 9.2,29.26 2.24,38.99 -6.97,9.73 -64.07,136.19 -79.04,163.83 -14.97,27.63 -25.78,49.06 -60.37,90.83 -24.51,29.58 -84.88,121.65 -84.88,121.65 0,0 -89.68,-58.12 -166.8,-125.79 0,0 103.75,-95.03 101.96,-126.21 -1.79,-31.2 -28.92,-87.44 -39.39,-133.77 -10.48,-46.34 -21.01,-99 -45.49,-132.2 -24.46,-33.2 -47.1,-74.79 7.17,-68.34 54.28,6.44 63.16,40.55 72.03,74.64 8.87,34.09 19.23,67.8 46.68,63.82 27.45,-3.98 105.56,-111.36 120.2,-134.16 13.92,-21.67 22.27,-150.75 85.17,-145.15 8.11,0.72 15.16,5.54 14.14,13.62 -3.91,30.63 1.28,106.67 -69.2,220.96 0,0 56.95,-41.7 76.42,-64.18 18.91,-21.83 41.5,-148.05 104.88,-143.22 4.41,0.34 7.8,4.09 7.32,8.49"
         style="fill:#f9ad95;fill-opacity:1;fill-rule:nonzero;stroke:none"
         id="path184" /><path
         d="m 4189.64,1219.34 -19.63,28.75 c -3.27,4.68 -6.59,9.33 -10.13,13.62 -1.75,2.15 -3.52,4.23 -5.37,6.08 -0.91,0.93 -1.85,1.67 -2.76,2.52 l -3.49,2.59 c -18.34,14.11 -36.14,28.81 -53.29,44.43 l -0.95,0.87 -0.25,0.62 c -5.37,12.74 -10.47,25.62 -14.63,38.97 8.19,-11.33 15.43,-23.14 22.41,-35.08 l -1.2,1.47 c 19.03,-13.43 37.37,-27.79 55.2,-42.74 l 3.3,-2.86 c 1.15,-1.19 2.39,-2.37 3.43,-3.58 2.07,-2.43 3.88,-4.9 5.62,-7.4 3.29,-5.08 6.15,-10.27 8.83,-15.53 5.19,-10.59 9.61,-21.45 12.91,-32.73"
         style="fill:#f57654;fill-opacity:1;fill-rule:nonzero;stroke:none"
         id="path186" /><path
         d="m 4046.4,1271.29 c -2.53,6.47 -4.08,12.88 -5.57,19.08 -0.86,3.07 -1.39,6.18 -2.34,8.84 -1.14,3.24 -0.73,2.68 -3.43,4.91 -4.43,3.8 -9.85,7.59 -14.71,11.85 -4.98,4.19 -9.85,8.65 -14.25,14.05 6.87,-1.19 13.15,-3.52 19.18,-6.33 6.09,-2.84 11.71,-6.1 17.36,-10.61 1.32,-1.21 2.89,-2.52 4.46,-4.96 1.46,-2.67 1.78,-4.39 2.17,-6.32 0.53,-3.7 0.82,-7.07 0.64,-10.5 -0.18,-6.79 -1.18,-13.44 -3.51,-20.01"
         style="fill:#f57654;fill-opacity:1;fill-rule:nonzero;stroke:none"
         id="path188" /><path
         d="m 4141.98,1348.57 c -7.74,4.55 -13.65,10.62 -19.11,17.05 -5.28,6.58 -10.11,13.53 -13.08,22.01 7.76,-4.54 13.67,-10.6 19.12,-17.04 5.26,-6.59 10.08,-13.55 13.07,-22.02"
         style="fill:#f57654;fill-opacity:1;fill-rule:nonzero;stroke:none"
         id="path190" /><path
         d="m 3514.17,562.262 -317.94,435.09 c -8.41,11.518 -12.52,25.608 -11.6,39.838 l 2.02,31.11 650.59,73.46 -323.07,-579.498"
         style="fill:#365462;fill-opacity:1;fill-rule:nonzero;stroke:none"
         id="path192" /><path
         d="M 3727.62,1057.43 3317.61,1010.2 3614.25,622.852 Z"
         style="fill:#243c44;fill-opacity:1;fill-rule:nonzero;stroke:none"
         id="path194" /><path
         d="m 5325.32,1861.26 -27.97,19.32 c -18.28,13.08 -40.6,19.27 -63.01,17.48 l -1605.12,-128.9 c -21.3,-1.71 -38.32,-18.43 -40.43,-39.69 l -104.94,-1059.7 -297.2,398.53 -2.19,-33.7 c -0.81,-12.55 2.82,-24.99 10.24,-35.159 l 294.47,-402.98 25,-34.199 1811.15,1298.998"
         style="fill:#1d2a30;fill-opacity:1;fill-rule:nonzero;stroke:none"
         id="path196" /><path
         d="M 5165.11,796.402 3514.17,562.262 3639.64,1693.82 c 2.33,20.97 19.16,37.38 40.19,39.16 l 1616.01,136.53 c 28.56,2.41 51.69,-22.84 46.78,-51.07 L 5165.11,796.402"
         style="fill:#365462;fill-opacity:1;fill-rule:nonzero;stroke:none"
         id="path198" /><path
         d="m 4393.34,1231.08 c -15.29,-53.53 -10.28,-115.03 39.82,-129.34 50.11,-14.32 103.14,17.48 118.43,71 15.29,53.54 10.29,115.03 -39.82,129.35 -50.12,14.32 -103.14,-17.47 -118.43,-71.01"
         style="fill:#f8f8f9;fill-opacity:1;fill-rule:nonzero;stroke:none"
         id="path200" /><path
         d="m 2910.62,1005.37 c 0,99.31 -80.51,179.82 -179.82,179.82 -29.44,0 -57.14,-7.21 -81.67,-19.76 -33.24,67.06 -102.2,113.27 -182.11,113.27 -112.31,0 -203.36,-91.04 -203.36,-203.36 0,-1.33 0.17,-2.62 0.2,-3.93 -9.82,2.47 -20.03,3.93 -30.61,3.93 -68.98,0 -124.9,-55.92 -124.9,-124.891 0,-68.98 55.92,-124.89 124.9,-124.89 h 522.45 l -1.29,1.73 c 88.12,11.59 156.21,86.789 156.21,178.081"
         style="fill:#ffffff;fill-opacity:1;fill-rule:nonzero;stroke:none"
         id="path202" /></g></g></svg>
